<?xml version="1.0" encoding="utf-8"?><svg xmlns="http://www.w3.org/2000/svg" xmlns:xlink="http://www.w3.org/1999/xlink"><symbol viewBox="0 0 491.996 491.996" id="arrow" xmlns="http://www.w3.org/2000/svg"><path d="M484.132 124.986l-16.116-16.228c-5.072-5.068-11.82-7.86-19.032-7.86-7.208 0-13.964 2.792-19.036 7.86l-183.84 183.848L62.056 108.554c-5.064-5.068-11.82-7.856-19.028-7.856s-13.968 2.788-19.036 7.856l-16.12 16.128c-10.496 10.488-10.496 27.572 0 38.06l219.136 219.924c5.064 5.064 11.812 8.632 19.084 8.632h.084c7.212 0 13.96-3.572 19.024-8.632l218.932-219.328c5.072-5.064 7.856-12.016 7.864-19.224 0-7.212-2.792-14.068-7.864-19.128z"/></symbol><symbol viewBox="0 0 512.001 512.001" id="close" xmlns="http://www.w3.org/2000/svg"><path d="M284.286 256.002L506.143 34.144c7.811-7.811 7.811-20.475 0-28.285-7.811-7.81-20.475-7.811-28.285 0L256 227.717 34.143 5.859c-7.811-7.811-20.475-7.811-28.285 0-7.81 7.811-7.811 20.475 0 28.285l221.857 221.857L5.858 477.859c-7.811 7.811-7.811 20.475 0 28.285a19.938 19.938 0 0014.143 5.857 19.94 19.94 0 0014.143-5.857L256 284.287l221.857 221.857c3.905 3.905 9.024 5.857 14.143 5.857s10.237-1.952 14.143-5.857c7.811-7.811 7.811-20.475 0-28.285L284.286 256.002z"/></symbol></svg>